<svg width="1920" height="1024" viewBox="0 0 1920 1024" fill="none" xmlns="http://www.w3.org/2000/svg">
<path d="M1015.12 294.805C475.166 -380.247 -215.477 -281.333 -802.271 -24.5769L159.671 1529.2C624.803 1342.76 1447.08 834.846 1015.12 294.805Z" fill="url(#paint0_linear)"/>
<path d="M1636 532C880 512 552 904 388 1312L1968 1500C2109.33 1184 2240.8 548 1636 532Z" fill="url(#paint1_linear)" fill-opacity="0.7"/>
<path d="M1181.83 173.162C862.132 50.0569 1054.43 -176.406 1140.58 -260.821C1261.14 -377.132 1527.19 -250.811 1649.14 -199.492C1771.08 -148.174 2114.79 106.186 2017.98 239.01C1921.16 371.835 1501.53 296.267 1181.83 173.162Z" fill="url(#paint2_linear)" fill-opacity="0.4"/>
<defs>
<linearGradient id="paint0_linear" x1="719.364" y1="-51.3926" x2="-384.042" y2="895.862" gradientUnits="userSpaceOnUse">
<stop stop-color="#C2C0FF"/>
<stop offset="1" stop-color="#96BAFF"/>
</linearGradient>
<linearGradient id="paint1_linear" x1="1237.55" y1="531.266" x2="1237.55" y2="1500" gradientUnits="userSpaceOnUse">
<stop stop-color="#B4E4FF"/>
<stop offset="1" stop-color="#4075FF"/>
</linearGradient>
<linearGradient id="paint2_linear" x1="1098.49" y1="-243.777" x2="1824.73" y2="322.265" gradientUnits="userSpaceOnUse">
<stop stop-color="#B4E4FF"/>
<stop offset="1" stop-color="#5EBCFF"/>
</linearGradient>
</defs>
</svg>
